<svg xmlns="http://www.w3.org/2000/svg" viewBox="0 0 128 128">
	<rect width="128" height="128" rx="24" fill="#7f54b3"/>
	<path fill="#fff" d="M26 43.5C26 36.6 31.6 31 38.5 31h51C96.4 31 102 36.6 102 43.5v26C102 76.4 96.4 82 89.5 82H67L50 96V82H38.5C31.6 82 26 76.4 26 69.5v-26Z"/>
	<path fill="#7f54b3" d="M40 47h7.2l3.7 16.5L55.5 47h6.8l4.8 16.5L70.8 47H78l-7.1 26h-7.4l-4.6-16.2L54.3 73h-7.2L40 47Zm43.6 6.4c5.7 0 9.5 4.1 9.5 10 0 6.1-3.8 10.2-9.5 10.2-5.8 0-9.6-4.1-9.6-10.2 0-5.9 3.8-10 9.6-10Zm0 5.5c-2.2 0-3.5 1.8-3.5 4.5 0 2.9 1.3 4.7 3.5 4.7 2.1 0 3.4-1.8 3.4-4.7 0-2.7-1.3-4.5-3.4-4.5Z"/>
</svg>
